# xmcd
#
# Track frame offsets:
#	150
#	13220
#	32652
#	50047
#	70485
#	85110
#	103842
#	123125
#	139295
#	155162
#	172945
#	186985
#
# Disc length: 2766 seconds
#
# Revision: 2
# Processed by: cddbd v1.5.1PL0 Copyright (c) Steve Scherf et al.
# Submitted via: audiograbber 1.83.01
#
DISCID=aa0acc0c
DTITLE=Absolute - In The Back Of My Mind
DYEAR=2005
DGENRE=Rock
TTITLE0=Air
TTITLE1=Dead Man Walking
TTITLE2=Call Me
TTITLE3=Color Blind
TTITLE4=Focus
TTITLE5=Ocean
TTITLE6=Inflections
TTITLE7=Castle
TTITLE8=Find My Love
TTITLE9=Determine
TTITLE10=Another Bad Day
TTITLE11=Before
EXTD=Produced by Ben Gill and Absolute\nRecorded at Red Leaf Studios\nEngineere
EXTD=d by Ben Gill\nMixed by Dan Garcia, South Pasadena Aero Club\nMastered by 
EXTD=Gavin Lurssen, The Mastering Lab\n
EXTT0=Words and Music - Greg Carritt
EXTT1=Words and Music - Reid Nelson
EXTT2=Words - Greg Carritt\nMusic - Greg Carritt, Alberto Castro
EXTT3=Words and Music - Greg Carritt
EXTT4=Words and Music - Reid Nelson
EXTT5=Words - Brendon Gerber, Reid Nelson\nMusic - Brendon Gerber
EXTT6=Words and Music - Greg Carritt
EXTT7=Words and Music - Greg Carritt
EXTT8=Words and Music - Greg Carritt
EXTT9=Words and Music - Greg Carritt
EXTT10=Words and Music - Reid Nelson
EXTT11=Words - Jeremy Larose, Reid Nelson\nMusic - Jeremy Larose
PLAYORDER=
